<svg width="72" height="72" viewBox="0 0 72 72" fill="none" xmlns="http://www.w3.org/2000/svg">
<path d="M72 36C72 55.8823 55.8823 72 36 72C16.1177 72 0 55.8823 0 36C0 16.1177 16.1177 0 36 0C55.8823 0 72 16.1177 72 36Z" fill="#5F8C3B"/>
<path d="M27.5519 37.4526L38.2166 51.4732C38.9537 52.4423 40.1457 52.4423 40.8749 51.4732L42.6472 49.1433C43.3843 48.1742 43.3843 46.6072 42.6472 45.6485L35.0878 35.7103L42.6472 25.7722C43.3843 24.8031 43.3843 23.2361 42.6472 22.2773L40.8828 19.9268C40.1457 18.9577 38.9537 18.9577 38.2244 19.9268L27.5597 33.9474C26.8147 34.9165 26.8147 36.4835 27.5519 37.4526Z" fill="white"/>
</svg>
