<svg width="72" height="72" viewBox="0 0 72 72" fill="none" xmlns="http://www.w3.org/2000/svg">
<path d="M72 36C72 55.8823 55.8823 72 36 72C16.1177 72 0 55.8823 0 36C0 16.1177 16.1177 0 36 0C55.8823 0 72 16.1177 72 36Z" fill="#5F8C3B"/>
<path d="M45.0481 37.4526L34.3834 51.4732C33.6463 52.4423 32.4543 52.4423 31.7251 51.4732L29.9528 49.1433C29.2157 48.1742 29.2157 46.6072 29.9528 45.6485L37.5123 35.7103L29.9528 25.7722C29.2157 24.8031 29.2157 23.2361 29.9528 22.2773L31.7172 19.9268C32.4543 18.9577 33.6463 18.9577 34.3756 19.9268L45.0403 33.9474C45.7853 34.9165 45.7853 36.4835 45.0481 37.4526Z" fill="white"/>
</svg>
