<svg width="102" height="38" viewBox="0 0 102 38" fill="none" xmlns="http://www.w3.org/2000/svg">
<path d="M0 38.0006L1 33.0006H19C23 33.0006 23.8357 30.1431 24 28.5006C24.4 24.5006 22.5 23.501 19 23.0387C14.5 22.4443 8 20.501 8 11.001C8.4 1.40097 16.6667 -0.295052 21 0.0382814L102 0.000577368L101 5.00058H21C10.5 5.50058 11 17.501 20 18.001C28 19.001 29 25.0006 29 28.5006C29 36.5006 21.6667 38.0006 19 38.0006H0Z" fill="white"/>
<path d="M68.9975 16.001L69.9988 21.001H73.9994C75.4994 21.001 77.4974 21.001 77.4974 23.001C77.4974 25.001 75.4974 25.001 73.9974 25.001C72.0462 25.001 68.0026 26.001 68 32.001C67.998 36.5037 71.9975 37.9786 74.4975 37.9785H98.9975L99.9975 33.001H74.4988C71.9988 33.001 71.9988 29.001 74.9988 29.001C79.0081 29.001 81.4974 27.501 81.4974 22.001C81.4974 16.501 76.2982 16.001 74.9974 16.001H68.9975Z" fill="white"/>
<path fill-rule="evenodd" clip-rule="evenodd" d="M59.5 8.00097C55.5 8.00097 52.1743 12.201 51.3414 21.001C51.3225 21.1644 51.3019 21.3384 51.2801 21.5219C50.7028 26.3924 49.327 38.001 58.001 38.001C64.8453 38.001 65.6181 32.5032 66.6507 25.1569C66.7495 24.4541 66.8507 23.7344 66.9597 23.001C66.9656 22.8758 66.9724 22.7418 66.9795 22.5996C67.1809 18.574 67.7099 8.00121 59.5 8.00097ZM60.0014 13.001C57.0014 13.001 55.5879 15.801 55.1715 21.6676C55.1441 21.9832 55.104 22.3466 55.06 22.7456C54.6856 26.1402 54.0276 32.1061 58.5013 33.001C62.0011 33.001 62.3275 29.6335 62.7727 25.041C62.8364 24.384 62.9025 23.7019 62.9807 23.001C62.9935 22.6393 63.0357 22.1768 63.0839 21.6495C63.3616 18.6124 63.8356 13.427 60.0014 13.001Z" fill="white"/>
<path d="M31 38.001L36 8.00097H51L50 13.001H39.5L38 22.001H48L47 27.001H37L36 33.001H48L47 38.001H31Z" fill="white"/>
<path d="M70 8.00065L71 13.0007H91C93.9383 13.0007 94.5 14.6985 94.5 16.0447C94.5 18.501 94 20.001 91 20.501C88.0617 20.5011 80.5 22.501 81 30.001C81.2023 33.0356 84 38.001 91 38.001H99L100 33.0006H91C83.2869 32.5984 85.4589 25.7398 91 25.001C98.5 24.001 99 19.0007 99 16.0447C99 10.0007 93.385 8.00065 91.4261 8.00065H70Z" fill="white"/>
<path fill-rule="evenodd" clip-rule="evenodd" d="M0 38.0006L1 33.0006H19C23 33.0006 23.8357 30.1431 24 28.5006C24.4 24.5006 22.5 23.501 19 23.0387C17.6717 22.8632 16.169 22.5702 14.7108 22H27.3007C28.7238 24.1316 29 26.6612 29 28.5006C29 36.5006 21.6667 38.0006 19 38.0006H0ZM85.4441 22H97.2867C96.1309 23.4163 94.2044 24.5737 91 25.001C85.4589 25.7398 83.2869 32.5984 91 33.0006H100L99 38.001H91C90.7257 38.001 90.4578 37.9933 90.1963 37.9785H74.4975C71.9975 37.9786 67.998 36.5037 68 32.001C68.0026 26.001 72.0462 25.001 73.9974 25.001C75.4974 25.001 77.4974 25.001 77.4974 23.001C77.4974 22.5879 77.4121 22.2601 77.2636 22H81.4974C81.4974 22.0003 81.4974 22.0006 81.4974 22.001C81.4974 27.501 79.0081 29.001 74.9988 29.001C71.9988 29.001 71.9988 33.001 74.4988 33.001H81.8913C81.3429 31.9509 81.0594 30.8926 81 30.001C80.7227 25.8409 82.9256 23.373 85.4441 22ZM51.2237 22C50.6264 27.1099 49.5993 38.001 58.001 38.001C64.8453 38.001 65.6181 32.5032 66.6507 25.1569C66.7495 24.4541 66.8507 23.7344 66.9597 23.001C66.9656 22.8758 66.9724 22.7418 66.9795 22.5996V22.5995V22.5995C66.9888 22.4131 66.9988 22.2127 67.0087 22H63.0521C63.018 22.3827 62.9905 22.7219 62.9807 23.001C62.9025 23.7016 62.8364 24.3834 62.7728 25.0402L62.7727 25.041C62.3275 29.6335 62.0011 33.001 58.5013 33.001C54.0276 32.1061 54.6856 26.1402 55.06 22.7456L55.06 22.7456C55.0893 22.4801 55.1168 22.2304 55.1401 22H51.2237ZM33.6668 22H38.0002L38 22.001H48L47 27.001H37L36 33.001H48L47 38.001H31L33.6668 22Z" fill="#95BF47"/>
</svg>
